<?xml version="1.0" encoding="UTF-8"?>
<!DOCTYPE svg PUBLIC "-//W3C//DTD SVG 1.1//EN" "http://www.w3.org/Graphics/SVG/1.1/DTD/svg11.dtd">
<svg xmlns="http://www.w3.org/2000/svg" version="1.1" width="512px" height="512px" style="shape-rendering:geometricPrecision; text-rendering:geometricPrecision; image-rendering:optimizeQuality; fill-rule:evenodd; clip-rule:evenodd" xmlns:xlink="http://www.w3.org/1999/xlink">
<g><path style="opacity:1" fill="#f9f9f9" d="M -0.5,-0.5 C 170.167,-0.5 340.833,-0.5 511.5,-0.5C 511.5,170.167 511.5,340.833 511.5,511.5C 340.833,511.5 170.167,511.5 -0.5,511.5C -0.5,340.833 -0.5,170.167 -0.5,-0.5 Z"/></g>
<g><path style="opacity:1" fill="#faa500" d="M 369.5,86.5 C 370.784,91.5203 372.45,96.5203 374.5,101.5C 380.508,104.062 386.842,105.562 393.5,106C 387.463,107.541 381.463,109.207 375.5,111C 372.562,116.075 370.729,121.575 370,127.5C 368.063,121.928 365.896,116.428 363.5,111C 357.546,109.452 351.546,108.119 345.5,107C 352.066,106.217 358.399,104.55 364.5,102C 366.27,96.8581 367.936,91.6914 369.5,86.5 Z"/></g>
<g><path style="opacity:1" fill="#fa8d01" d="M 272.5,125.5 C 264.99,126.167 257.323,126.833 249.5,127.5C 250.833,128.833 252.167,130.167 253.5,131.5C 252.758,132.287 251.925,132.953 251,133.5C 250.282,132.549 249.449,132.383 248.5,133C 250.664,135.898 250.664,138.398 248.5,140.5C 249.522,141.354 250.355,142.354 251,143.5C 251.645,142.354 252.478,141.354 253.5,140.5C 251.019,139.14 251.352,138.14 254.5,137.5C 255.429,136.311 255.762,134.978 255.5,133.5C 256.822,133.67 257.989,133.337 259,132.5C 260.284,133.572 260.617,134.905 260,136.5C 260.333,136.167 260.667,135.833 261,135.5C 261.465,136.931 262.299,138.097 263.5,139C 262.289,139.893 262.289,140.726 263.5,141.5C 264.333,139.5 265.167,137.5 266,135.5C 267.372,138.785 269.039,139.451 271,137.5C 272.286,138.35 272.119,139.517 270.5,141C 273.092,144.13 276.425,145.964 280.5,146.5C 280.367,151.272 281.7,151.438 284.5,147C 285.167,146.333 285.833,146.333 286.5,147C 285.483,148.049 285.316,149.216 286,150.5C 286.333,149.833 286.667,149.167 287,148.5C 287.5,150.333 288.667,151.5 290.5,152C 289.833,152.333 289.167,152.667 288.5,153C 289.849,153.772 290.682,154.939 291,156.5C 291.249,155.376 291.749,154.376 292.5,153.5C 293.354,154.522 294.354,155.355 295.5,156C 294.833,156.333 294.167,156.667 293.5,157C 294.381,157.708 295.047,158.542 295.5,159.5C 291.629,159.185 287.962,159.518 284.5,160.5C 283.522,160.811 282.855,161.478 282.5,162.5C 283.52,164.432 283.687,166.432 283,168.5C 278.362,171.261 273.862,171.428 269.5,169C 271.5,168 273.5,167 275.5,166C 274.584,165.626 273.75,165.126 273,164.5C 271.566,166.136 269.733,167.136 267.5,167.5C 265.889,166.68 265.222,165.346 265.5,163.5C 264.5,163.5 263.5,163.5 262.5,163.5C 262.234,167.079 260.901,167.413 258.5,164.5C 257.094,165.951 255.594,167.284 254,168.5C 253.342,166.892 253.842,165.725 255.5,165C 254.5,164.5 253.5,164 252.5,163.5C 251.232,164.428 249.899,164.595 248.5,164C 250.929,163.549 251.096,162.715 249,161.5C 247.022,161.738 245.355,163.071 244,165.5C 243.617,164.944 243.117,164.611 242.5,164.5C 247.182,158.302 252.182,152.302 257.5,146.5C 230.175,145.5 202.841,145.167 175.5,145.5C 170.63,138.94 165.63,132.44 160.5,126C 197.832,125.5 235.165,125.333 272.5,125.5 Z"/></g>
<g><path style="opacity:1" fill="#faa200" d="M 284.5,125.5 C 289.167,125.5 293.833,125.5 298.5,125.5C 299.605,127.153 299.771,128.82 299,130.5C 299.914,129.346 300.747,129.513 301.5,131C 300.253,132.458 300.253,133.958 301.5,135.5C 300.975,136.192 300.308,136.692 299.5,137C 301.623,138.773 303.623,139.94 305.5,140.5C 304.624,141.251 303.624,141.751 302.5,142C 304.301,142.317 304.634,142.984 303.5,144C 306.126,146.029 307.126,145.195 306.5,141.5C 307.552,141.351 308.552,141.517 309.5,142C 308.542,143.147 308.875,144.147 310.5,145C 311.872,145.402 313.205,145.902 314.5,146.5C 316.098,148.556 316.765,150.556 316.5,152.5C 315.833,153.833 314.833,154.833 313.5,155.5C 313.539,154.244 313.039,153.244 312,152.5C 310.899,154.394 309.566,155.061 308,154.5C 307.25,153.874 306.416,153.374 305.5,153C 306.833,151.16 306.666,150.66 305,151.5C 303.175,150.897 301.341,150.23 299.5,149.5C 300.909,149.346 302.576,149.179 304.5,149C 302.285,147.186 299.952,146.686 297.5,147.5C 298.701,151.265 298.034,151.432 295.5,148C 295.833,147.667 296.167,147.333 296.5,147C 293.667,146.833 292.167,145.333 292,142.5C 291.667,143.833 291.333,145.167 291,146.5C 290.5,145.333 289.667,144.5 288.5,144C 289.711,143.107 289.711,142.274 288.5,141.5C 287.808,142.025 287.308,142.692 287,143.5C 286,142.167 285,140.833 284,139.5C 282.398,143.504 281.398,143.504 281,139.5C 281.853,137.875 282.853,137.542 284,138.5C 283.689,137.065 283.855,135.732 284.5,134.5C 282.939,133.653 281.439,133.986 280,135.5C 279.228,134.151 278.061,133.318 276.5,133C 278.705,130.062 277.705,128.062 273.5,127C 277.356,126.823 281.023,126.323 284.5,125.5 Z"/></g>
<g><path style="opacity:1" fill="#faaf00" d="M 298.5,125.5 C 303.167,125.5 307.833,125.5 312.5,125.5C 311.232,126.787 311.565,127.787 313.5,128.5C 312.833,128.833 312.167,129.167 311.5,129.5C 313.665,131.767 315.665,131.767 317.5,129.5C 321.339,130.95 321.339,131.95 317.5,132.5C 317.351,133.552 317.517,134.552 318,135.5C 319.337,134.235 320.837,133.735 322.5,134C 322.693,135.645 322.86,137.479 323,139.5C 324.06,139.254 325.227,139.254 326.5,139.5C 327.59,140.391 327.59,141.391 326.5,142.5C 326.957,143.298 327.624,143.631 328.5,143.5C 325.09,147.238 321.09,150.238 316.5,152.5C 316.765,150.556 316.098,148.556 314.5,146.5C 313.205,145.902 311.872,145.402 310.5,145C 308.875,144.147 308.542,143.147 309.5,142C 308.552,141.517 307.552,141.351 306.5,141.5C 307.126,145.195 306.126,146.029 303.5,144C 304.634,142.984 304.301,142.317 302.5,142C 303.624,141.751 304.624,141.251 305.5,140.5C 303.623,139.94 301.623,138.773 299.5,137C 300.308,136.692 300.975,136.192 301.5,135.5C 300.253,133.958 300.253,132.458 301.5,131C 300.747,129.513 299.914,129.346 299,130.5C 299.771,128.82 299.605,127.153 298.5,125.5 Z"/></g>
<g><path style="opacity:1" fill="#faba05" d="M 312.5,125.5 C 324.171,125.333 335.838,125.5 347.5,126C 341.597,132.407 335.263,138.241 328.5,143.5C 327.624,143.631 326.957,143.298 326.5,142.5C 327.59,141.391 327.59,140.391 326.5,139.5C 325.227,139.254 324.06,139.254 323,139.5C 322.86,137.479 322.693,135.645 322.5,134C 320.837,133.735 319.337,134.235 318,135.5C 317.517,134.552 317.351,133.552 317.5,132.5C 321.339,131.95 321.339,130.95 317.5,129.5C 315.665,131.767 313.665,131.767 311.5,129.5C 312.167,129.167 312.833,128.833 313.5,128.5C 311.565,127.787 311.232,126.787 312.5,125.5 Z"/></g>
<g><path style="opacity:1" fill="#fa9600" d="M 272.5,125.5 C 276.5,125.5 280.5,125.5 284.5,125.5C 281.023,126.323 277.356,126.823 273.5,127C 277.705,128.062 278.705,130.062 276.5,133C 278.061,133.318 279.228,134.151 280,135.5C 281.439,133.986 282.939,133.653 284.5,134.5C 283.855,135.732 283.689,137.065 284,138.5C 282.853,137.542 281.853,137.875 281,139.5C 281.398,143.504 282.398,143.504 284,139.5C 285,140.833 286,142.167 287,143.5C 287.308,142.692 287.808,142.025 288.5,141.5C 289.711,142.274 289.711,143.107 288.5,144C 289.667,144.5 290.5,145.333 291,146.5C 291.333,145.167 291.667,143.833 292,142.5C 292.167,145.333 293.667,146.833 296.5,147C 296.167,147.333 295.833,147.667 295.5,148C 298.034,151.432 298.701,151.265 297.5,147.5C 299.952,146.686 302.285,147.186 304.5,149C 302.576,149.179 300.909,149.346 299.5,149.5C 301.341,150.23 303.175,150.897 305,151.5C 306.666,150.66 306.833,151.16 305.5,153C 306.416,153.374 307.25,153.874 308,154.5C 309.566,155.061 310.899,154.394 312,152.5C 313.039,153.244 313.539,154.244 313.5,155.5C 308.198,159.212 302.198,160.545 295.5,159.5C 295.047,158.542 294.381,157.708 293.5,157C 294.167,156.667 294.833,156.333 295.5,156C 294.354,155.355 293.354,154.522 292.5,153.5C 291.749,154.376 291.249,155.376 291,156.5C 290.682,154.939 289.849,153.772 288.5,153C 289.167,152.667 289.833,152.333 290.5,152C 288.667,151.5 287.5,150.333 287,148.5C 286.667,149.167 286.333,149.833 286,150.5C 285.316,149.216 285.483,148.049 286.5,147C 285.833,146.333 285.167,146.333 284.5,147C 281.7,151.438 280.367,151.272 280.5,146.5C 276.425,145.964 273.092,144.13 270.5,141C 272.119,139.517 272.286,138.35 271,137.5C 269.039,139.451 267.372,138.785 266,135.5C 265.167,137.5 264.333,139.5 263.5,141.5C 262.289,140.726 262.289,139.893 263.5,139C 262.299,138.097 261.465,136.931 261,135.5C 260.667,135.833 260.333,136.167 260,136.5C 260.617,134.905 260.284,133.572 259,132.5C 257.989,133.337 256.822,133.67 255.5,133.5C 255.762,134.978 255.429,136.311 254.5,137.5C 251.352,138.14 251.019,139.14 253.5,140.5C 252.478,141.354 251.645,142.354 251,143.5C 250.355,142.354 249.522,141.354 248.5,140.5C 250.664,138.398 250.664,135.898 248.5,133C 249.449,132.383 250.282,132.549 251,133.5C 251.925,132.953 252.758,132.287 253.5,131.5C 252.167,130.167 250.833,128.833 249.5,127.5C 257.323,126.833 264.99,126.167 272.5,125.5 Z"/></g>
<g><path style="opacity:1" fill="#fa5a12" d="M 175.5,145.5 C 202.841,145.167 230.175,145.5 257.5,146.5C 252.182,152.302 247.182,158.302 242.5,164.5C 242.167,164.5 241.833,164.5 241.5,164.5C 241.167,164.5 240.833,164.5 240.5,164.5C 240.5,162.833 240.5,161.167 240.5,159.5C 222.164,159.667 203.83,159.5 185.5,159C 182.036,154.559 178.702,150.059 175.5,145.5 Z"/></g>
<g><path style="opacity:1" fill="#0e95dc" d="M 325.5,164.5 C 324.504,164.586 323.671,164.252 323,163.5C 322.517,164.448 322.351,165.448 322.5,166.5C 321.448,166.649 320.448,166.483 319.5,166C 320.413,164.586 320.413,163.086 319.5,161.5C 334.395,150.775 347.561,138.108 359,123.5C 355.309,134.678 349.143,144.512 340.5,153C 335.8,157.336 330.8,161.169 325.5,164.5 Z"/></g>
<g><path style="opacity:1" fill="#fa7c0d" d="M 284.5,160.5 C 284.827,165.544 284.494,170.544 283.5,175.5C 276.934,180.282 269.934,184.282 262.5,187.5C 262.258,184.319 262.258,181.319 262.5,178.5C 261.397,178.002 260.397,177.669 259.5,177.5C 260.605,176.108 261.939,174.941 263.5,174C 262.874,173.25 262.374,172.416 262,171.5C 260.166,175.813 258.166,176.146 256,172.5C 253.73,174.997 251.396,177.33 249,179.5C 248.626,178.584 248.126,177.75 247.5,177C 248.956,176.577 249.456,175.744 249,174.5C 247.686,175.313 246.519,176.313 245.5,177.5C 244.914,177.291 244.414,176.957 244,176.5C 243.544,177.744 244.044,178.577 245.5,179C 245,179.5 244.5,180 244,180.5C 241.42,178.462 241.254,176.462 243.5,174.5C 241.711,171.444 241.044,168.111 241.5,164.5C 241.833,164.5 242.167,164.5 242.5,164.5C 243.117,164.611 243.617,164.944 244,165.5C 245.355,163.071 247.022,161.738 249,161.5C 251.096,162.715 250.929,163.549 248.5,164C 249.899,164.595 251.232,164.428 252.5,163.5C 253.5,164 254.5,164.5 255.5,165C 253.842,165.725 253.342,166.892 254,168.5C 255.594,167.284 257.094,165.951 258.5,164.5C 260.901,167.413 262.234,167.079 262.5,163.5C 263.5,163.5 264.5,163.5 265.5,163.5C 265.222,165.346 265.889,166.68 267.5,167.5C 269.733,167.136 271.566,166.136 273,164.5C 273.75,165.126 274.584,165.626 275.5,166C 273.5,167 271.5,168 269.5,169C 273.862,171.428 278.362,171.261 283,168.5C 283.687,166.432 283.52,164.432 282.5,162.5C 282.855,161.478 283.522,160.811 284.5,160.5 Z"/></g>
<g><path style="opacity:1" fill="#1288d5" d="M 319.5,161.5 C 320.413,163.086 320.413,164.586 319.5,166C 320.448,166.483 321.448,166.649 322.5,166.5C 322.351,165.448 322.517,164.448 323,163.5C 323.671,164.252 324.504,164.586 325.5,164.5C 313.24,174.973 299.907,183.973 285.5,191.5C 284.539,189.735 284.205,187.735 284.5,185.5C 295.956,177.266 307.622,169.266 319.5,161.5 Z"/></g>
<g><path style="opacity:1" fill="#fa6c14" d="M 240.5,164.5 C 240.833,164.5 241.167,164.5 241.5,164.5C 241.044,168.111 241.711,171.444 243.5,174.5C 241.254,176.462 241.42,178.462 244,180.5C 244.5,180 245,179.5 245.5,179C 244.044,178.577 243.544,177.744 244,176.5C 244.414,176.957 244.914,177.291 245.5,177.5C 246.519,176.313 247.686,175.313 249,174.5C 249.456,175.744 248.956,176.577 247.5,177C 248.126,177.75 248.626,178.584 249,179.5C 251.396,177.33 253.73,174.997 256,172.5C 258.166,176.146 260.166,175.813 262,171.5C 262.374,172.416 262.874,173.25 263.5,174C 261.939,174.941 260.605,176.108 259.5,177.5C 260.397,177.669 261.397,178.002 262.5,178.5C 262.258,181.319 262.258,184.319 262.5,187.5C 255.509,192.304 248.342,196.97 241,201.5C 240.5,189.171 240.333,176.838 240.5,164.5 Z"/></g>
<g><path style="opacity:1" fill="#f94d5b" d="M 197.5,177.5 C 197.294,179.549 196.461,179.883 195,178.5C 192.486,179.089 190.486,180.422 189,182.5C 188.423,177.379 187.423,177.379 186,182.5C 185.418,179.332 184.418,178.999 183,181.5C 182.667,180.833 182.333,180.167 182,179.5C 181.02,180.981 179.853,182.315 178.5,183.5C 177.391,182.41 176.391,182.41 175.5,183.5C 176.59,184.609 176.59,185.609 175.5,186.5C 174.808,185.975 174.308,185.308 174,184.5C 171.541,187.1 169.041,187.1 166.5,184.5C 165.304,184.846 165.304,185.346 166.5,186C 164.833,186.333 163.167,186.667 161.5,187C 160.167,187.667 160.167,188.333 161.5,189C 160.563,189.692 159.897,189.525 159.5,188.5C 162.287,181.548 167.287,176.715 174.5,174C 179.833,173.333 185.167,173.333 190.5,174C 193.174,174.67 195.507,175.837 197.5,177.5 Z"/></g>
<g><path style="opacity:1" fill="#0da7e0" d="M 362.5,200.5 C 360.199,199.94 357.866,199.44 355.5,199C 356.833,198.333 358.167,197.667 359.5,197C 358.062,196.781 356.729,196.281 355.5,195.5C 356.025,194.808 356.692,194.308 357.5,194C 356.069,193.535 354.903,192.701 354,191.5C 350.978,192.331 349.478,190.998 349.5,187.5C 348.178,187.67 347.011,187.337 346,186.5C 345.667,187.167 345.333,187.833 345,188.5C 344.682,186.939 343.849,185.772 342.5,185C 343.956,184.577 344.456,183.744 344,182.5C 342.002,183.271 340.335,182.605 339,180.5C 338.333,183.167 337.667,183.167 337,180.5C 336,180.5 335,180.5 334,180.5C 333.517,179.552 333.351,178.552 333.5,177.5C 331.234,177.141 329.401,177.808 328,179.5C 326.122,178.947 324.622,177.947 323.5,176.5C 335.586,170.762 346.086,173.096 355,183.5C 358.07,188.968 360.57,194.635 362.5,200.5 Z"/></g>
<g><path style="opacity:1" fill="#f33964" d="M 197.5,177.5 C 202.673,179.758 208.007,181.424 213.5,182.5C 214.091,183.151 214.757,183.818 215.5,184.5C 214.354,185.719 213.354,187.052 212.5,188.5C 212.704,187.471 212.204,186.471 211,185.5C 210.667,186.5 210.333,187.5 210,188.5C 208.497,184.19 206.83,183.856 205,187.5C 203.333,186.833 201.667,186.167 200,185.5C 199.692,186.308 199.192,186.975 198.5,187.5C 197.549,186.674 196.549,186.508 195.5,187C 196.7,188.952 196.2,190.452 194,191.5C 192.295,190.237 190.628,189.903 189,190.5C 188.573,187.507 187.406,187.007 185.5,189C 186.416,189.278 187.082,189.778 187.5,190.5C 184.391,190.264 181.391,190.597 178.5,191.5C 177.178,191.67 176.011,191.337 175,190.5C 173.881,191.552 173.381,192.719 173.5,194C 170.046,196.839 167.046,196.672 164.5,193.5C 164.446,194.687 164.113,196.02 163.5,197.5C 162.833,197.167 162.167,196.833 161.5,196.5C 161.511,197.441 161.011,198.108 160,198.5C 159.5,198.333 159,198.167 158.5,198C 159.089,194.654 158.422,194.654 156.5,198C 157.711,199.113 157.711,200.28 156.5,201.5C 155.743,202.773 155.077,202.773 154.5,201.5C 155.213,196.676 156.88,192.343 159.5,188.5C 159.897,189.525 160.563,189.692 161.5,189C 160.167,188.333 160.167,187.667 161.5,187C 163.167,186.667 164.833,186.333 166.5,186C 165.304,185.346 165.304,184.846 166.5,184.5C 169.041,187.1 171.541,187.1 174,184.5C 174.308,185.308 174.808,185.975 175.5,186.5C 176.59,185.609 176.59,184.609 175.5,183.5C 176.391,182.41 177.391,182.41 178.5,183.5C 179.853,182.315 181.02,180.981 182,179.5C 182.333,180.167 182.667,180.833 183,181.5C 184.418,178.999 185.418,179.332 186,182.5C 187.423,177.379 188.423,177.379 189,182.5C 190.486,180.422 192.486,179.089 195,178.5C 196.461,179.883 197.294,179.549 197.5,177.5 Z"/></g>
<g><path style="opacity:1" fill="#0a96de" d="M 323.5,176.5 C 324.622,177.947 326.122,178.947 328,179.5C 329.401,177.808 331.234,177.141 333.5,177.5C 333.351,178.552 333.517,179.552 334,180.5C 335,180.5 336,180.5 337,180.5C 337.667,183.167 338.333,183.167 339,180.5C 340.335,182.605 342.002,183.271 344,182.5C 344.456,183.744 343.956,184.577 342.5,185C 343.849,185.772 344.682,186.939 345,188.5C 345.333,187.833 345.667,187.167 346,186.5C 347.011,187.337 348.178,187.67 349.5,187.5C 349.478,190.998 350.978,192.331 354,191.5C 354.903,192.701 356.069,193.535 357.5,194C 356.692,194.308 356.025,194.808 355.5,195.5C 356.729,196.281 358.062,196.781 359.5,197C 358.167,197.667 356.833,198.333 355.5,199C 357.866,199.44 360.199,199.94 362.5,200.5C 366.291,213.665 369.458,226.998 372,240.5C 372.869,247.181 372.036,253.514 369.5,259.5C 368.684,257.856 367.35,256.69 365.5,256C 365.485,253.818 366.485,251.818 368.5,250C 367.672,249.085 366.672,248.419 365.5,248C 367.583,246.68 367.249,245.346 364.5,244C 367.167,243.333 367.167,242.667 364.5,242C 365.362,239.266 366.195,239.099 367,241.5C 367.684,240.216 367.517,239.049 366.5,238C 367.428,237.612 368.095,236.945 368.5,236C 367.118,235.041 365.785,233.375 364.5,231C 365.357,230.311 366.023,229.478 366.5,228.5C 364.639,227.472 363.305,225.972 362.5,224C 363.167,223.667 363.833,223.333 364.5,223C 363.192,222.176 361.692,221.676 360,221.5C 360.43,219.873 360.596,218.373 360.5,217C 357.456,216.641 357.122,215.974 359.5,215C 358.134,213.4 357.134,211.567 356.5,209.5C 355.808,210.025 355.308,210.692 355,211.5C 354.385,208.697 353.218,206.364 351.5,204.5C 350.754,201.445 348.754,199.778 345.5,199.5C 343.235,200.432 341.235,201.765 339.5,203.5C 338.078,203.291 336.745,202.791 335.5,202C 336.167,201.667 336.833,201.333 337.5,201C 337.116,200.049 336.783,199.216 336.5,198.5C 340.012,192.928 338.679,188.928 332.5,186.5C 326.317,188.977 324.984,192.977 328.5,198.5C 327.841,201.408 327.007,201.742 326,199.5C 325.283,200.044 324.783,200.711 324.5,201.5C 323.833,201.5 323.5,201.167 323.5,200.5C 323.881,199.069 324.881,198.236 326.5,198C 325.24,196.887 324.073,196.72 323,197.5C 321.639,195.972 320.472,194.305 319.5,192.5C 317.328,191.795 315.328,190.795 313.5,189.5C 312.148,190.518 311.148,191.851 310.5,193.5C 310.089,192.738 309.923,191.738 310,190.5C 308.601,191.227 307.101,191.727 305.5,192C 306.696,192.654 306.696,193.154 305.5,193.5C 304.614,192.675 304.281,191.675 304.5,190.5C 310.81,185.865 317.143,181.198 323.5,176.5 Z"/></g>
<g><path style="opacity:1" fill="#f22e70" d="M 213.5,182.5 C 219.167,182.5 224.833,182.5 230.5,182.5C 230.5,186.167 230.5,189.833 230.5,193.5C 229.732,194.263 229.232,195.263 229,196.5C 228.131,193.237 226.797,192.904 225,195.5C 224.508,196.549 224.674,197.549 225.5,198.5C 225.081,199.672 224.415,200.672 223.5,201.5C 222.306,199.773 222.306,197.94 223.5,196C 222.892,195.13 222.059,194.63 221,194.5C 220.454,195.289 219.787,196.289 219,197.5C 217.127,198.089 215.46,197.422 214,195.5C 211.77,199.378 209.603,199.378 207.5,195.5C 205.837,196.875 204.503,196.542 203.5,194.5C 203.81,196.201 203.31,197.868 202,199.5C 201,197.5 200,195.5 199,193.5C 198.676,195.569 197.842,195.902 196.5,194.5C 194.289,195.123 192.289,196.123 190.5,197.5C 189.818,196.757 189.151,196.091 188.5,195.5C 188.634,193.708 188.301,192.042 187.5,190.5C 187.082,189.778 186.416,189.278 185.5,189C 187.406,187.007 188.573,187.507 189,190.5C 190.628,189.903 192.295,190.237 194,191.5C 196.2,190.452 196.7,188.952 195.5,187C 196.549,186.508 197.549,186.674 198.5,187.5C 199.192,186.975 199.692,186.308 200,185.5C 201.667,186.167 203.333,186.833 205,187.5C 206.83,183.856 208.497,184.19 210,188.5C 210.333,187.5 210.667,186.5 211,185.5C 212.204,186.471 212.704,187.471 212.5,188.5C 213.354,187.052 214.354,185.719 215.5,184.5C 214.757,183.818 214.091,183.151 213.5,182.5 Z"/></g>
<g><path style="opacity:1" fill="#f6f7f9" d="M 336.5,198.5 C 333.833,199.833 331.167,199.833 328.5,198.5C 324.984,192.977 326.317,188.977 332.5,186.5C 338.679,188.928 340.012,192.928 336.5,198.5 Z"/></g>
<g><path style="opacity:1" fill="#f8f6f7" d="M 187.5,190.5 C 188.301,192.042 188.634,193.708 188.5,195.5C 188.5,197.5 188.5,199.5 188.5,201.5C 192.042,201.187 195.375,201.521 198.5,202.5C 198.777,205.448 198.444,208.281 197.5,211C 194.518,211.498 191.518,211.665 188.5,211.5C 188.5,214.167 188.5,216.833 188.5,219.5C 187.306,220.777 185.64,221.444 183.5,221.5C 181.631,221.493 179.964,221.16 178.5,220.5C 178.5,217.5 178.5,214.5 178.5,211.5C 176.833,211.5 175.167,211.5 173.5,211.5C 171.833,211.5 170.167,211.5 168.5,211.5C 168.5,208.167 168.5,204.833 168.5,201.5C 171.833,201.5 175.167,201.5 178.5,201.5C 178.5,198.167 178.5,194.833 178.5,191.5C 181.391,190.597 184.391,190.264 187.5,190.5 Z"/></g>
<g><path style="opacity:1" fill="#1b5ab8" d="M 284.5,185.5 C 284.205,187.735 284.539,189.735 285.5,191.5C 278.041,196.735 270.374,201.735 262.5,206.5C 262.5,203.833 262.5,201.167 262.5,198.5C 269.851,194.139 277.184,189.806 284.5,185.5 Z"/></g>
<g><path style="opacity:1" fill="#eb2075" d="M 230.5,193.5 C 230.827,198.544 230.494,203.544 229.5,208.5C 227.925,209.456 226.258,210.123 224.5,210.5C 223.4,209.442 222.066,208.608 220.5,208C 221.654,207.086 221.487,206.253 220,205.5C 218.245,206.67 217.245,208.337 217,210.5C 216.077,209.241 215.243,207.908 214.5,206.5C 213.205,207.098 211.872,207.598 210.5,208C 212.271,208.535 212.604,209.369 211.5,210.5C 209.5,208.833 207.5,207.167 205.5,205.5C 202.844,205.04 200.51,204.04 198.5,202.5C 195.375,201.521 192.042,201.187 188.5,201.5C 188.5,199.5 188.5,197.5 188.5,195.5C 189.151,196.091 189.818,196.757 190.5,197.5C 192.289,196.123 194.289,195.123 196.5,194.5C 197.842,195.902 198.676,195.569 199,193.5C 200,195.5 201,197.5 202,199.5C 203.31,197.868 203.81,196.201 203.5,194.5C 204.503,196.542 205.837,196.875 207.5,195.5C 209.603,199.378 211.77,199.378 214,195.5C 215.46,197.422 217.127,198.089 219,197.5C 219.787,196.289 220.454,195.289 221,194.5C 222.059,194.63 222.892,195.13 223.5,196C 222.306,197.94 222.306,199.773 223.5,201.5C 224.415,200.672 225.081,199.672 225.5,198.5C 224.674,197.549 224.508,196.549 225,195.5C 226.797,192.904 228.131,193.237 229,196.5C 229.232,195.263 229.732,194.263 230.5,193.5 Z"/></g>
<g><path style="opacity:1" fill="#0074cc" d="M 323.5,200.5 C 317.974,198.674 314.641,200.674 313.5,206.5C 312.141,207.007 311.141,208.007 310.5,209.5C 309.808,208.975 309.308,208.308 309,207.5C 308.667,207.833 308.333,208.167 308,208.5C 306.985,203.977 304.819,203.31 301.5,206.5C 299.958,205.253 298.458,205.253 297,206.5C 296.066,205.142 295.232,203.808 294.5,202.5C 294.338,200.473 294.505,198.473 295,196.5C 298.139,194.353 301.305,192.353 304.5,190.5C 304.281,191.675 304.614,192.675 305.5,193.5C 306.696,193.154 306.696,192.654 305.5,192C 307.101,191.727 308.601,191.227 310,190.5C 309.923,191.738 310.089,192.738 310.5,193.5C 311.148,191.851 312.148,190.518 313.5,189.5C 315.328,190.795 317.328,191.795 319.5,192.5C 320.472,194.305 321.639,195.972 323,197.5C 324.073,196.72 325.24,196.887 326.5,198C 324.881,198.236 323.881,199.069 323.5,200.5 Z"/></g>
<g><path style="opacity:1" fill="#027cd3" d="M 328.5,198.5 C 331.167,199.833 333.833,199.833 336.5,198.5C 336.783,199.216 337.116,200.049 337.5,201C 336.833,201.333 336.167,201.667 335.5,202C 336.745,202.791 338.078,203.291 339.5,203.5C 338.826,207.317 340.159,210.15 343.5,212C 346.095,212.6 348.429,212.1 350.5,210.5C 350.11,212.39 351.11,213.89 353.5,215C 352.572,215.388 351.905,216.055 351.5,217C 352.384,218.098 353.384,218.598 354.5,218.5C 353.5,219.167 352.5,219.833 351.5,220.5C 352.391,221.59 353.391,221.59 354.5,220.5C 355.739,222.007 355.405,223.174 353.5,224C 354.833,225.333 356.167,226.667 357.5,228C 355.015,229.223 354.848,230.723 357,232.5C 357.333,232.167 357.667,231.833 358,231.5C 358.638,232.609 359.138,233.775 359.5,235C 359.108,236.011 358.441,236.511 357.5,236.5C 358.376,237.251 359.376,237.751 360.5,238C 358.833,238.333 357.167,238.667 355.5,239C 357.104,240.237 358.771,241.403 360.5,242.5C 358.838,243.327 357.505,244.493 356.5,246C 357.549,246.492 358.549,246.326 359.5,245.5C 360.23,246.934 361.23,248.1 362.5,249C 360.963,250.11 360.297,251.61 360.5,253.5C 363.205,253.38 363.872,254.38 362.5,256.5C 363.737,257.281 364.737,258.281 365.5,259.5C 365.154,260.696 364.654,260.696 364,259.5C 363.647,260.672 363.813,261.838 364.5,263C 363.167,264.333 361.833,265.667 360.5,267C 360.57,267.765 360.903,268.265 361.5,268.5C 360.653,269.966 359.32,270.8 357.5,271C 354.518,271.498 351.518,271.665 348.5,271.5C 349.868,270.694 351.201,269.694 352.5,268.5C 353.167,269.167 353.833,269.833 354.5,270.5C 355.645,269.224 355.645,267.891 354.5,266.5C 358.942,264.503 359.609,261.503 356.5,257.5C 357.016,258.758 356.35,259.758 354.5,260.5C 353.833,260.167 353.167,259.833 352.5,259.5C 351.304,259.846 351.304,260.346 352.5,261C 350.5,261.667 348.5,261.667 346.5,261C 347.308,260.692 347.975,260.192 348.5,259.5C 347.352,257.851 346.019,256.351 344.5,255C 346.843,255.707 349.176,255.374 351.5,254C 348.456,253.641 348.122,252.974 350.5,252C 349.833,251.667 349.167,251.333 348.5,251C 351.003,249.451 351.003,247.784 348.5,246C 349.167,245.667 349.833,245.333 350.5,245C 349.284,243.406 347.951,241.906 346.5,240.5C 347.816,239.193 348.816,237.693 349.5,236C 348.616,234.223 346.949,232.556 344.5,231C 344.95,229.715 345.617,228.548 346.5,227.5C 345.609,226.41 344.609,226.41 343.5,227.5C 342.808,226.975 342.308,226.308 342,225.5C 341.667,225.833 341.333,226.167 341,226.5C 340.51,225.207 340.343,223.873 340.5,222.5C 341.873,222.657 343.207,222.49 344.5,222C 341.833,221.333 341.833,220.667 344.5,220C 342.455,219.51 340.455,219.677 338.5,220.5C 338.984,217.212 337.984,214.545 335.5,212.5C 334.791,211.596 333.791,211.263 332.5,211.5C 332.741,208.001 331.908,207.668 330,210.5C 329.051,208.907 327.885,207.574 326.5,206.5C 326.107,204.716 325.441,203.05 324.5,201.5C 324.783,200.711 325.283,200.044 326,199.5C 327.007,201.742 327.841,201.408 328.5,198.5 Z"/></g>
<g><path style="opacity:1" fill="#5533a3" d="M 262.5,198.5 C 262.5,201.167 262.5,203.833 262.5,206.5C 256.408,210.594 250.075,214.26 243.5,217.5C 243.459,215.255 242.625,214.588 241,215.5C 240.517,214.552 240.351,213.552 240.5,212.5C 247.543,207.473 254.876,202.806 262.5,198.5 Z"/></g>
<g><path style="opacity:1" fill="#f2f5f7" d="M 323.5,200.5 C 323.5,201.167 323.833,201.5 324.5,201.5C 325.441,203.05 326.107,204.716 326.5,206.5C 325.925,208.411 324.925,210.078 323.5,211.5C 318.435,213.455 315.101,211.788 313.5,206.5C 314.641,200.674 317.974,198.674 323.5,200.5 Z"/></g>
<g><path style="opacity:1" fill="#f5f7f8" d="M 351.5,204.5 C 351.675,206.621 351.341,208.621 350.5,210.5C 348.429,212.1 346.095,212.6 343.5,212C 340.159,210.15 338.826,207.317 339.5,203.5C 341.235,201.765 343.235,200.432 345.5,199.5C 348.754,199.778 350.754,201.445 351.5,204.5 Z"/></g>
<g><path style="opacity:1" fill="#0b5ab6" d="M 294.5,202.5 C 295.232,203.808 296.066,205.142 297,206.5C 298.458,205.253 299.958,205.253 301.5,206.5C 304.819,203.31 306.985,203.977 308,208.5C 308.333,208.167 308.667,207.833 309,207.5C 309.308,208.308 309.808,208.975 310.5,209.5C 311.141,208.007 312.141,207.007 313.5,206.5C 315.101,211.788 318.435,213.455 323.5,211.5C 323.414,212.496 323.748,213.329 324.5,214C 322.589,215.496 320.589,216.829 318.5,218C 322.674,219.508 323.341,221.841 320.5,225C 321.667,225.5 322.5,226.333 323,227.5C 323.333,227.167 323.667,226.833 324,226.5C 326.192,227.788 328.025,228.788 329.5,229.5C 328.975,230.192 328.308,230.692 327.5,231C 328.214,232.343 327.88,233.676 326.5,235C 328.03,239.038 327.196,239.538 324,236.5C 323.583,237.756 322.75,238.423 321.5,238.5C 313.261,233.667 304.261,231.667 294.5,232.5C 294.5,222.5 294.5,212.5 294.5,202.5 Z"/></g>
<g><path style="opacity:1" fill="#14489d" d="M 284.5,215.5 C 283.448,215.351 282.448,215.517 281.5,216C 275.481,220.674 269.147,224.841 262.5,228.5C 262.5,224.833 262.5,221.167 262.5,217.5C 269.263,212.609 276.263,207.942 283.5,203.5C 284.491,207.445 284.824,211.445 284.5,215.5 Z"/></g>
<g><path style="opacity:1" fill="#ec2373" d="M 178.5,191.5 C 178.5,194.833 178.5,198.167 178.5,201.5C 175.167,201.5 171.833,201.5 168.5,201.5C 168.5,204.833 168.5,208.167 168.5,211.5C 170.167,211.5 171.833,211.5 173.5,211.5C 173.082,212.222 172.416,212.722 171.5,213C 172.833,213.333 174.167,213.667 175.5,214C 173.193,214.779 171.193,214.279 169.5,212.5C 168.808,213.025 168.308,213.692 168,214.5C 166.927,213.72 165.76,213.887 164.5,215C 165.672,215.419 166.672,216.085 167.5,217C 166.333,217.5 165.5,218.333 165,219.5C 163.355,217.338 161.188,216.005 158.5,215.5C 155.941,217.965 153.441,220.965 151,224.5C 150.329,223.748 149.496,223.414 148.5,223.5C 149.587,215.811 151.587,208.478 154.5,201.5C 155.077,202.773 155.743,202.773 156.5,201.5C 157.711,200.28 157.711,199.113 156.5,198C 158.422,194.654 159.089,194.654 158.5,198C 159,198.167 159.5,198.333 160,198.5C 161.011,198.108 161.511,197.441 161.5,196.5C 162.167,196.833 162.833,197.167 163.5,197.5C 164.113,196.02 164.446,194.687 164.5,193.5C 167.046,196.672 170.046,196.839 173.5,194C 173.381,192.719 173.881,191.552 175,190.5C 176.011,191.337 177.178,191.67 178.5,191.5 Z"/></g>
<g><path style="opacity:1" fill="#da1e7c" d="M 198.5,202.5 C 200.51,204.04 202.844,205.04 205.5,205.5C 207.5,207.167 209.5,208.833 211.5,210.5C 212.604,209.369 212.271,208.535 210.5,208C 211.872,207.598 213.205,207.098 214.5,206.5C 215.243,207.908 216.077,209.241 217,210.5C 217.245,208.337 218.245,206.67 220,205.5C 221.487,206.253 221.654,207.086 220.5,208C 222.066,208.608 223.4,209.442 224.5,210.5C 220.223,214.312 215.557,217.645 210.5,220.5C 209.265,220.279 208.265,219.612 207.5,218.5C 206.28,219.711 205.113,219.711 204,218.5C 203.667,219.167 203.333,219.833 203,220.5C 199.485,217.226 197.152,217.893 196,222.5C 194.354,220.945 194.021,219.279 195,217.5C 193.216,220.003 191.549,220.003 190,217.5C 189.722,218.416 189.222,219.082 188.5,219.5C 188.5,216.833 188.5,214.167 188.5,211.5C 191.518,211.665 194.518,211.498 197.5,211C 198.444,208.281 198.777,205.448 198.5,202.5 Z"/></g>
<g><path style="opacity:1" fill="#0188d4" d="M 351.5,204.5 C 353.218,206.364 354.385,208.697 355,211.5C 355.308,210.692 355.808,210.025 356.5,209.5C 357.134,211.567 358.134,213.4 359.5,215C 357.122,215.974 357.456,216.641 360.5,217C 360.596,218.373 360.43,219.873 360,221.5C 361.692,221.676 363.192,222.176 364.5,223C 363.833,223.333 363.167,223.667 362.5,224C 363.305,225.972 364.639,227.472 366.5,228.5C 366.023,229.478 365.357,230.311 364.5,231C 365.785,233.375 367.118,235.041 368.5,236C 368.095,236.945 367.428,237.612 366.5,238C 367.517,239.049 367.684,240.216 367,241.5C 366.195,239.099 365.362,239.266 364.5,242C 367.167,242.667 367.167,243.333 364.5,244C 367.249,245.346 367.583,246.68 365.5,248C 366.672,248.419 367.672,249.085 368.5,250C 366.485,251.818 365.485,253.818 365.5,256C 367.35,256.69 368.684,257.856 369.5,259.5C 368.232,263.767 365.565,266.767 361.5,268.5C 360.903,268.265 360.57,267.765 360.5,267C 361.833,265.667 363.167,264.333 364.5,263C 363.813,261.838 363.647,260.672 364,259.5C 364.654,260.696 365.154,260.696 365.5,259.5C 364.737,258.281 363.737,257.281 362.5,256.5C 363.872,254.38 363.205,253.38 360.5,253.5C 360.297,251.61 360.963,250.11 362.5,249C 361.23,248.1 360.23,246.934 359.5,245.5C 358.549,246.326 357.549,246.492 356.5,246C 357.505,244.493 358.838,243.327 360.5,242.5C 358.771,241.403 357.104,240.237 355.5,239C 357.167,238.667 358.833,238.333 360.5,238C 359.376,237.751 358.376,237.251 357.5,236.5C 358.441,236.511 359.108,236.011 359.5,235C 359.138,233.775 358.638,232.609 358,231.5C 357.667,231.833 357.333,232.167 357,232.5C 354.848,230.723 355.015,229.223 357.5,228C 356.167,226.667 354.833,225.333 353.5,224C 355.405,223.174 355.739,222.007 354.5,220.5C 353.391,221.59 352.391,221.59 351.5,220.5C 352.5,219.833 353.5,219.167 354.5,218.5C 353.384,218.598 352.384,218.098 351.5,217C 351.905,216.055 352.572,215.388 353.5,215C 351.11,213.89 350.11,212.39 350.5,210.5C 351.341,208.621 351.675,206.621 351.5,204.5 Z"/></g>
<g><path style="opacity:1" fill="#da1f7c" d="M 173.5,211.5 C 175.167,211.5 176.833,211.5 178.5,211.5C 178.5,214.5 178.5,217.5 178.5,220.5C 176.073,221.279 176.073,222.446 178.5,224C 178,224.5 177.5,225 177,225.5C 175.989,224.663 174.822,224.33 173.5,224.5C 173.657,225.873 173.49,227.207 173,228.5C 172.3,226.968 171.134,225.968 169.5,225.5C 168.5,226.833 167.5,226.833 166.5,225.5C 165.304,225.846 165.304,226.346 166.5,227C 164.254,228.039 162.087,229.206 160,230.5C 159.577,229.044 158.744,228.544 157.5,229C 158.821,230.545 158.488,231.711 156.5,232.5C 155.719,231.271 155.219,229.938 155,228.5C 154.5,229.667 153.667,230.5 152.5,231C 154.569,231.324 154.902,232.158 153.5,233.5C 151.134,233.133 148.8,233.633 146.5,235C 149.167,236 149.167,237 146.5,238C 147.167,238.333 147.833,238.667 148.5,239C 146.391,239.907 145.058,241.407 144.5,243.5C 145.19,236.652 146.523,229.986 148.5,223.5C 149.496,223.414 150.329,223.748 151,224.5C 153.441,220.965 155.941,217.965 158.5,215.5C 161.188,216.005 163.355,217.338 165,219.5C 165.5,218.333 166.333,217.5 167.5,217C 166.672,216.085 165.672,215.419 164.5,215C 165.76,213.887 166.927,213.72 168,214.5C 168.308,213.692 168.808,213.025 169.5,212.5C 171.193,214.279 173.193,214.779 175.5,214C 174.167,213.667 172.833,213.333 171.5,213C 172.416,212.722 173.082,212.222 173.5,211.5 Z"/></g>
<g><path style="opacity:1" fill="#f2f5f8" d="M 335.5,212.5 C 337.984,214.545 338.984,217.212 338.5,220.5C 335.197,226.392 331.363,226.726 327,221.5C 325.786,214.876 328.62,211.876 335.5,212.5 Z"/></g>
<g><path style="opacity:1" fill="#1168cb" d="M 284.5,215.5 C 284.5,231.833 284.5,248.167 284.5,264.5C 283.751,263.469 283.085,262.302 282.5,261C 283.159,257.162 283.492,253.329 283.5,249.5C 283.281,248.062 282.781,246.729 282,245.5C 281.333,244.167 280.667,244.167 280,245.5C 279.313,247.568 279.48,249.568 280.5,251.5C 279.675,252.386 278.675,252.719 277.5,252.5C 278.738,258.433 277.905,258.766 275,253.5C 274,254.833 273,256.167 272,257.5C 271.289,259.367 271.789,260.867 273.5,262C 272.333,262.5 271.5,263.333 271,264.5C 269.382,264.111 268.215,262.778 267.5,260.5C 266.157,265.817 264.823,265.817 263.5,260.5C 262.911,258.627 263.578,256.96 265.5,255.5C 264.965,253.739 263.965,252.406 262.5,251.5C 262.5,243.833 262.5,236.167 262.5,228.5C 269.147,224.841 275.481,220.674 281.5,216C 282.448,215.517 283.448,215.351 284.5,215.5 Z"/></g>
<g><path style="opacity:1" fill="#cd1b83" d="M 210.5,220.5 C 205.167,224.833 199.833,229.167 194.5,233.5C 193.287,231.324 191.62,230.991 189.5,232.5C 188.252,231.96 187.085,231.293 186,230.5C 183.848,232.277 184.015,233.777 186.5,235C 183.339,235.203 181.172,233.703 180,230.5C 179.255,233.787 177.422,234.787 174.5,233.5C 173.184,236.028 172.017,236.028 171,233.5C 170.385,235.116 169.385,236.449 168,237.5C 167.549,235.071 166.715,234.904 165.5,237C 165.833,237.333 166.167,237.667 166.5,238C 165.019,238.98 163.685,240.147 162.5,241.5C 162.709,242.086 163.043,242.586 163.5,243C 161.667,243.5 160.5,244.667 160,246.5C 159.667,245.833 159.333,245.167 159,244.5C 157.754,248.082 155.42,250.749 152,252.5C 150.301,251.594 148.467,251.261 146.5,251.5C 146.737,252.791 146.404,253.791 145.5,254.5C 144.577,250.936 144.244,247.269 144.5,243.5C 145.058,241.407 146.391,239.907 148.5,239C 147.833,238.667 147.167,238.333 146.5,238C 149.167,237 149.167,236 146.5,235C 148.8,233.633 151.134,233.133 153.5,233.5C 154.902,232.158 154.569,231.324 152.5,231C 153.667,230.5 154.5,229.667 155,228.5C 155.219,229.938 155.719,231.271 156.5,232.5C 158.488,231.711 158.821,230.545 157.5,229C 158.744,228.544 159.577,229.044 160,230.5C 162.087,229.206 164.254,228.039 166.5,227C 165.304,226.346 165.304,225.846 166.5,225.5C 167.5,226.833 168.5,226.833 169.5,225.5C 171.134,225.968 172.3,226.968 173,228.5C 173.49,227.207 173.657,225.873 173.5,224.5C 174.822,224.33 175.989,224.663 177,225.5C 177.5,225 178,224.5 178.5,224C 176.073,222.446 176.073,221.279 178.5,220.5C 179.964,221.16 181.631,221.493 183.5,221.5C 185.64,221.444 187.306,220.777 188.5,219.5C 189.222,219.082 189.722,218.416 190,217.5C 191.549,220.003 193.216,220.003 195,217.5C 194.021,219.279 194.354,220.945 196,222.5C 197.152,217.893 199.485,217.226 203,220.5C 203.333,219.833 203.667,219.167 204,218.5C 205.113,219.711 206.28,219.711 207.5,218.5C 208.265,219.612 209.265,220.279 210.5,220.5 Z"/></g>
<g><path style="opacity:1" fill="#9b107a" d="M 262.5,217.5 C 262.5,221.167 262.5,224.833 262.5,228.5C 259.484,230.671 256.318,232.671 253,234.5C 252.439,233.978 251.772,233.645 251,233.5C 250.651,234.473 249.818,235.306 248.5,236C 247.216,236.684 246.049,236.517 245,235.5C 244.801,237.402 243.967,238.902 242.5,240C 243.412,241.625 242.745,242.459 240.5,242.5C 240.176,238.445 240.509,234.445 241.5,230.5C 248.388,225.894 255.388,221.561 262.5,217.5 Z"/></g>
<g><path style="opacity:1" fill="#0371cb" d="M 326.5,206.5 C 327.885,207.574 329.051,208.907 330,210.5C 331.908,207.668 332.741,208.001 332.5,211.5C 333.791,211.263 334.791,211.596 335.5,212.5C 328.62,211.876 325.786,214.876 327,221.5C 331.363,226.726 335.197,226.392 338.5,220.5C 340.455,219.677 342.455,219.51 344.5,220C 341.833,220.667 341.833,221.333 344.5,222C 343.207,222.49 341.873,222.657 340.5,222.5C 340.343,223.873 340.51,225.207 341,226.5C 341.333,226.167 341.667,225.833 342,225.5C 342.308,226.308 342.808,226.975 343.5,227.5C 344.609,226.41 345.609,226.41 346.5,227.5C 345.617,228.548 344.95,229.715 344.5,231C 346.949,232.556 348.616,234.223 349.5,236C 348.816,237.693 347.816,239.193 346.5,240.5C 347.951,241.906 349.284,243.406 350.5,245C 349.833,245.333 349.167,245.667 348.5,246C 351.003,247.784 351.003,249.451 348.5,251C 349.167,251.333 349.833,251.667 350.5,252C 348.122,252.974 348.456,253.641 351.5,254C 349.176,255.374 346.843,255.707 344.5,255C 346.019,256.351 347.352,257.851 348.5,259.5C 347.975,260.192 347.308,260.692 346.5,261C 348.5,261.667 350.5,261.667 352.5,261C 351.304,260.346 351.304,259.846 352.5,259.5C 353.167,259.833 353.833,260.167 354.5,260.5C 356.35,259.758 357.016,258.758 356.5,257.5C 359.609,261.503 358.942,264.503 354.5,266.5C 355.645,267.891 355.645,269.224 354.5,270.5C 353.833,269.833 353.167,269.167 352.5,268.5C 351.201,269.694 349.868,270.694 348.5,271.5C 343.37,269.874 339.203,266.874 336,262.5C 331.074,254.553 326.24,246.553 321.5,238.5C 322.75,238.423 323.583,237.756 324,236.5C 327.196,239.538 328.03,239.038 326.5,235C 327.88,233.676 328.214,232.343 327.5,231C 328.308,230.692 328.975,230.192 329.5,229.5C 328.025,228.788 326.192,227.788 324,226.5C 323.667,226.833 323.333,227.167 323,227.5C 322.5,226.333 321.667,225.5 320.5,225C 323.341,221.841 322.674,219.508 318.5,218C 320.589,216.829 322.589,215.496 324.5,214C 323.748,213.329 323.414,212.496 323.5,211.5C 324.925,210.078 325.925,208.411 326.5,206.5 Z"/></g>
<g><path style="opacity:1" fill="#b51988" d="M 194.5,233.5 C 189.46,237.544 184.793,241.877 180.5,246.5C 180.103,245.475 179.437,245.308 178.5,246C 178.705,247.676 177.872,249.176 176,250.5C 175.333,247.833 174.667,247.833 174,250.5C 173.805,248.793 173.805,247.126 174,245.5C 173.25,246.126 172.416,246.626 171.5,247C 171.833,247.333 172.167,247.667 172.5,248C 171.333,248.5 170.5,249.333 170,250.5C 168.406,248.018 166.572,247.852 164.5,250C 168.449,251.727 168.783,253.227 165.5,254.5C 164.833,254.167 164.167,253.833 163.5,253.5C 163.467,254.989 162.967,256.322 162,257.5C 161.282,256.549 160.449,256.383 159.5,257C 161.836,259.048 161.836,260.882 159.5,262.5C 158.289,261.726 158.289,260.893 159.5,260C 158.584,259.626 157.75,259.126 157,258.5C 157.984,260.598 157.651,262.598 156,264.5C 154.919,262.233 153.419,262.066 151.5,264C 152.999,264.838 153.332,265.671 152.5,266.5C 148.671,263.527 146.338,259.527 145.5,254.5C 146.404,253.791 146.737,252.791 146.5,251.5C 148.467,251.261 150.301,251.594 152,252.5C 155.42,250.749 157.754,248.082 159,244.5C 159.333,245.167 159.667,245.833 160,246.5C 160.5,244.667 161.667,243.5 163.5,243C 163.043,242.586 162.709,242.086 162.5,241.5C 163.685,240.147 165.019,238.98 166.5,238C 166.167,237.667 165.833,237.333 165.5,237C 166.715,234.904 167.549,235.071 168,237.5C 169.385,236.449 170.385,235.116 171,233.5C 172.017,236.028 173.184,236.028 174.5,233.5C 177.422,234.787 179.255,233.787 180,230.5C 181.172,233.703 183.339,235.203 186.5,235C 184.015,233.777 183.848,232.277 186,230.5C 187.085,231.293 188.252,231.96 189.5,232.5C 191.62,230.991 193.287,231.324 194.5,233.5 Z"/></g>
<g><path style="opacity:1" fill="#c70e8c" d="M 262.5,228.5 C 262.5,236.167 262.5,243.833 262.5,251.5C 262.5,256.5 262.5,261.5 262.5,266.5C 254.844,274.829 247.51,283.496 240.5,292.5C 240.5,275.833 240.5,259.167 240.5,242.5C 242.745,242.459 243.412,241.625 242.5,240C 243.967,238.902 244.801,237.402 245,235.5C 246.049,236.517 247.216,236.684 248.5,236C 249.818,235.306 250.651,234.473 251,233.5C 251.772,233.645 252.439,233.978 253,234.5C 256.318,232.671 259.484,230.671 262.5,228.5 Z"/></g>
<g><path style="opacity:1" fill="#0775d3" d="M 284.5,264.5 C 284.827,269.544 284.494,274.544 283.5,279.5C 276.461,285.545 269.461,291.545 262.5,297.5C 262.255,287.016 262.255,276.682 262.5,266.5C 262.5,261.5 262.5,256.5 262.5,251.5C 263.965,252.406 264.965,253.739 265.5,255.5C 263.578,256.96 262.911,258.627 263.5,260.5C 264.823,265.817 266.157,265.817 267.5,260.5C 268.215,262.778 269.382,264.111 271,264.5C 271.5,263.333 272.333,262.5 273.5,262C 271.789,260.867 271.289,259.367 272,257.5C 273,256.167 274,254.833 275,253.5C 277.905,258.766 278.738,258.433 277.5,252.5C 278.675,252.719 279.675,252.386 280.5,251.5C 279.48,249.568 279.313,247.568 280,245.5C 280.667,244.167 281.333,244.167 282,245.5C 282.781,246.729 283.281,248.062 283.5,249.5C 283.492,253.329 283.159,257.162 282.5,261C 283.085,262.302 283.751,263.469 284.5,264.5 Z"/></g>
<g><path style="opacity:1" fill="#9e148e" d="M 180.5,246.5 C 173.74,255.36 169.74,265.36 168.5,276.5C 161.832,275.173 156.498,271.839 152.5,266.5C 153.332,265.671 152.999,264.838 151.5,264C 153.419,262.066 154.919,262.233 156,264.5C 157.651,262.598 157.984,260.598 157,258.5C 157.75,259.126 158.584,259.626 159.5,260C 158.289,260.893 158.289,261.726 159.5,262.5C 161.836,260.882 161.836,259.048 159.5,257C 160.449,256.383 161.282,256.549 162,257.5C 162.967,256.322 163.467,254.989 163.5,253.5C 164.167,253.833 164.833,254.167 165.5,254.5C 168.783,253.227 168.449,251.727 164.5,250C 166.572,247.852 168.406,248.018 170,250.5C 170.5,249.333 171.333,248.5 172.5,248C 172.167,247.667 171.833,247.333 171.5,247C 172.416,246.626 173.25,246.126 174,245.5C 173.805,247.126 173.805,248.793 174,250.5C 174.667,247.833 175.333,247.833 176,250.5C 177.872,249.176 178.705,247.676 178.5,246C 179.437,245.308 180.103,245.475 180.5,246.5 Z"/></g>
<g><path style="opacity:1" fill="#e079a3" d="M 219.5,246.5 C 220.002,244.915 221.002,244.415 222.5,245C 221.756,246.039 220.756,246.539 219.5,246.5 Z"/></g>
<g><path style="opacity:1" fill="#731b97" d="M 240.5,212.5 C 240.351,213.552 240.517,214.552 241,215.5C 242.625,214.588 243.459,215.255 243.5,217.5C 232.899,224.811 222.233,232.144 211.5,239.5C 203.221,245.611 195.721,252.611 189,260.5C 182.784,268.579 180.784,277.579 183,287.5C 187.779,296.353 186.779,296.687 180,288.5C 175.188,275.629 177.188,263.963 186,253.5C 202.495,237.514 220.662,223.847 240.5,212.5 Z"/></g>
<g><path style="opacity:1" fill="#dd2479" d="M 219.5,246.5 C 212.085,253.413 205.585,261.08 200,269.5C 197.053,275.48 196.887,281.48 199.5,287.5C 196.913,287.817 195.08,286.483 194,283.5C 191.918,277.557 192.585,271.891 196,266.5C 202.608,258.296 210.441,251.629 219.5,246.5 Z"/></g>
<g><path style="opacity:1" fill="#6b1998" d="M 262.5,266.5 C 262.255,276.682 262.255,287.016 262.5,297.5C 255.504,304.328 248.337,310.995 241,317.5C 240.5,309.173 240.334,300.84 240.5,292.5C 247.51,283.496 254.844,274.829 262.5,266.5 Z"/></g>
<g><path style="opacity:1" fill="#fa690e" d="M 108.5,371.5 C 105.5,371.5 102.5,371.5 99.5,371.5C 99.8278,360.654 99.4944,349.987 98.5,339.5C 92.8333,339.5 87.1667,339.5 81.5,339.5C 81.5,336.5 81.5,333.5 81.5,330.5C 96.5,330.5 111.5,330.5 126.5,330.5C 126.296,333.518 125.963,336.518 125.5,339.5C 119.833,339.5 114.167,339.5 108.5,339.5C 108.5,350.167 108.5,360.833 108.5,371.5 Z"/></g>
<g><path style="opacity:1" fill="#ea2074" d="M 149.5,330.5 C 152.833,330.5 156.167,330.5 159.5,330.5C 159.5,344.5 159.5,358.5 159.5,372.5C 156.167,372.5 152.833,372.5 149.5,372.5C 149.5,358.5 149.5,344.5 149.5,330.5 Z"/></g>
<g><path style="opacity:1" fill="#8237b9" d="M 182.5,330.5 C 197.504,330.333 212.504,330.5 227.5,331C 226.518,333.738 225.852,336.572 225.5,339.5C 219.833,339.5 214.167,339.5 208.5,339.5C 208.5,350.5 208.5,361.5 208.5,372.5C 205.458,371.459 202.458,371.459 199.5,372.5C 199.5,361.5 199.5,350.5 199.5,339.5C 193.833,339.5 188.167,339.5 182.5,339.5C 182.5,336.5 182.5,333.5 182.5,330.5 Z"/></g>
<g><path style="opacity:1" fill="#0fceb6" d="M 324.5,329.5 C 332.685,329.685 340.851,329.685 349,329.5C 361.763,332.286 366.096,339.953 362,352.5C 360.108,356.058 357.275,358.558 353.5,360C 357.535,363.7 361.202,367.7 364.5,372C 360.167,372.667 355.833,372.667 351.5,372C 348.687,368.353 345.687,364.853 342.5,361.5C 340.257,360.526 337.924,360.192 335.5,360.5C 335.5,357.5 335.5,354.5 335.5,351.5C 340.511,351.666 345.511,351.499 350.5,351C 354.5,347.333 354.5,343.667 350.5,340C 343.174,339.5 335.841,339.334 328.5,339.5C 328.5,350.5 328.5,361.5 328.5,372.5C 325.5,372.5 322.5,372.5 319.5,372.5C 319.5,358.5 319.5,344.5 319.5,330.5C 321.415,330.784 323.081,330.451 324.5,329.5 Z"/></g>
<g><path style="opacity:1" fill="#f96c14" d="M 408.5,363.5 C 412.75,362.896 416.417,362.229 419.5,361.5C 416.614,355.396 413.447,349.396 410,343.5C 403.803,352.717 397.97,362.217 392.5,372C 388.789,372.825 385.122,372.659 381.5,371.5C 388.983,357.345 397.316,343.845 406.5,331C 411.579,329.432 415.413,330.932 418,335.5C 423.896,347.625 430.063,359.625 436.5,371.5C 432.878,372.659 429.211,372.825 425.5,372C 424.833,371 424.167,370 423.5,369C 419.459,368.827 415.459,368.327 411.5,367.5C 410.476,366.148 409.476,364.815 408.5,363.5 Z"/></g>
<g><path style="opacity:1" fill="#139be0" d="M 266.5,329.5 C 270.695,329.681 274.195,331.347 277,334.5C 283.365,347.098 290.198,359.431 297.5,371.5C 293.878,372.659 290.211,372.825 286.5,372C 285.5,370.333 284.5,368.667 283.5,367C 279.227,365.97 274.894,365.303 270.5,365C 269.167,363.333 267.833,361.667 266.5,360C 270.833,359.667 275.167,359.333 279.5,359C 275.959,352.751 272.293,346.584 268.5,340.5C 262.174,350.477 256.341,360.81 251,371.5C 247.214,372.795 243.38,372.795 239.5,371.5C 246.826,359.52 253.66,347.187 260,334.5C 261.965,332.45 264.132,330.783 266.5,329.5 Z"/></g>
<g><path style="opacity:1" fill="#f39d6a" d="M 98.5,339.5 C 99.4944,349.987 99.8278,360.654 99.5,371.5C 102.5,371.5 105.5,371.5 108.5,371.5C 105.375,372.479 102.042,372.813 98.5,372.5C 98.5,361.5 98.5,350.5 98.5,339.5 Z"/></g>
<g><path style="opacity:1" fill="#f4a16e" d="M 419.5,361.5 C 416.417,362.229 412.75,362.896 408.5,363.5C 407.957,363.44 407.624,363.107 407.5,362.5C 411.445,361.509 415.445,361.176 419.5,361.5 Z"/></g>
<g><path style="opacity:1" fill="#101e43" d="M 156.5,387.5 C 159.187,387.336 161.854,387.503 164.5,388C 165.973,388.71 166.64,389.876 166.5,391.5C 163.518,391.037 160.518,390.704 157.5,390.5C 157.281,391.675 157.614,392.675 158.5,393.5C 161.391,394.006 164.058,395.006 166.5,396.5C 168.378,401.965 166.378,404.631 160.5,404.5C 157.528,404.844 155.194,403.844 153.5,401.5C 153.808,400.692 154.308,400.025 155,399.5C 158.317,402.045 161.484,402.045 164.5,399.5C 160.925,398.186 157.425,396.52 154,394.5C 153.333,393.167 153.333,391.833 154,390.5C 155.045,389.627 155.878,388.627 156.5,387.5 Z"/></g>
<g><path style="opacity:1" fill="#1d284a" d="M 186.5,387.5 C 191.833,387.5 197.167,387.5 202.5,387.5C 202.5,388.5 202.5,389.5 202.5,390.5C 200.5,390.5 198.5,390.5 196.5,390.5C 196.5,395.167 196.5,399.833 196.5,404.5C 195.167,404.5 193.833,404.5 192.5,404.5C 192.5,399.833 192.5,395.167 192.5,390.5C 190.5,390.5 188.5,390.5 186.5,390.5C 186.5,389.5 186.5,388.5 186.5,387.5 Z"/></g>
<g><path style="opacity:1" fill="#0a1c41" d="M 221.5,387.5 C 222.5,387.5 223.5,387.5 224.5,387.5C 224.335,391.182 224.501,394.848 225,398.5C 227.178,402.065 229.844,402.399 233,399.5C 233.499,395.514 233.666,391.514 233.5,387.5C 234.5,387.5 235.5,387.5 236.5,387.5C 236.666,391.846 236.499,396.179 236,400.5C 234.982,403.683 232.815,405.016 229.5,404.5C 226.029,404.849 223.529,403.516 222,400.5C 221.501,396.179 221.334,391.846 221.5,387.5 Z"/></g>
<g><path style="opacity:1" fill="#0e1d42" d="M 257.5,387.5 C 262.121,386.993 266.454,387.826 270.5,390C 274.532,394.604 274.199,398.937 269.5,403C 265.637,404.354 261.637,404.854 257.5,404.5C 257.5,398.833 257.5,393.167 257.5,387.5 Z"/></g>
<g><path style="opacity:1" fill="#07193e" d="M 293.5,387.5 C 294.5,387.5 295.5,387.5 296.5,387.5C 296.5,393.167 296.5,398.833 296.5,404.5C 295.5,404.5 294.5,404.5 293.5,404.5C 293.5,398.833 293.5,393.167 293.5,387.5 Z"/></g>
<g><path style="opacity:1" fill="#132146" d="M 322.5,387.5 C 333.981,387.788 336.981,392.955 331.5,403C 326.637,405.329 322.137,404.829 318,401.5C 315.251,395.356 316.751,390.689 322.5,387.5 Z"/></g>
<g><path style="opacity:1" fill="#111f44" d="M 356.5,387.5 C 359.187,387.336 361.854,387.503 364.5,388C 365.973,388.71 366.64,389.876 366.5,391.5C 364.658,391.277 362.825,390.943 361,390.5C 359.338,390.388 358.171,391.054 357.5,392.5C 360.5,393.833 363.5,395.167 366.5,396.5C 368.094,399.624 367.428,402.124 364.5,404C 361.833,404.667 359.167,404.667 356.5,404C 355.09,403.632 354.09,402.799 353.5,401.5C 356.75,401.192 360.083,401.025 363.5,401C 363.957,400.586 364.291,400.086 364.5,399.5C 360.925,398.186 357.425,396.52 354,394.5C 353.333,393.167 353.333,391.833 354,390.5C 355.045,389.627 355.878,388.627 356.5,387.5 Z"/></g>
<g><path style="opacity:1" fill="#f2f2f5" d="M 323.5,390.5 C 330.53,390.746 332.53,393.913 329.5,400C 322.922,402.757 320.089,400.59 321,393.5C 321.698,392.309 322.531,391.309 323.5,390.5 Z"/></g>
<g><path style="opacity:1" fill="#f3f2f6" d="M 260.5,390.5 C 267.956,390.095 270.623,393.429 268.5,400.5C 265.873,401.092 263.206,401.425 260.5,401.5C 260.5,397.833 260.5,394.167 260.5,390.5 Z"/></g>
<g><path style="opacity:1" fill="#2a3355" d="M 101.5,394.5 C 112.853,394.168 124.186,394.501 135.5,395.5C 129.833,395.833 124.167,396.167 118.5,396.5C 112.458,396.496 106.792,395.829 101.5,394.5 Z"/></g>
<g><path style="opacity:1" fill="#293254" d="M 384.5,394.5 C 395.853,394.168 407.186,394.501 418.5,395.5C 412.833,395.833 407.167,396.167 401.5,396.5C 395.458,396.496 389.792,395.829 384.5,394.5 Z"/></g>
</svg>
